#!OML:ASF H:\Dans Jumps\Project 1\Capture day 1\Session 1\subject.ASF
:FULLY-SPECIFIED
:DEGREES
377
root 0.336351 17.2283 -6.47791 5.0553 -5.10819 -0.75764
lowerback 2.89913 1.35904 0.0602458
upperback 3.99819 1.78425 1.28824
thorax 2.44103 0.871745 1.27561
lowerneck -11.0291 -0.00923327 -0.820273
upperneck 33.5746 0.35688 -0.528336
head 13.0515 -0.0142724 -0.0110077
rclavicle 7.95139e-016 1.51076e-014
rhumerus -59.7713 -30.32 -41.8635
rradius 22.5193
rwrist 44.7701
rhand -15.6806 -26.5011
rfingers 7.12502
rthumb 10.5083 -56.2185
lclavicle 7.95139e-016 1.51076e-014
lhumerus -65.1587 14.7317 62.872
lradius 16.3447
lwrist 7.90654
lhand -16.4973 4.97784
lfingers 7.12502
lthumb 9.72042 34.7335
rfemur -23.1712 -2.49413 19.22
rtibia 37.3592
rfoot -18.8961 -0.415599
rtoes 10.1036
lfemur -20.5766 8.05934 -20.3406
ltibia 34.8377
lfoot -14.597 13.8116
ltoes 2.39356
378
root 0.331637 17.2573 -6.47878 5.1891 -5.16873 -0.783851
lowerback 2.80752 1.41094 -0.0204098
upperback 4.02812 1.85198 1.27125
thorax 2.51992 0.903263 1.30585
lowerneck -11.075 -0.0336195 -0.905891
upperneck 33.5869 0.339517 -0.511322
head 13.0668 -0.0303497 0.0083136
rclavicle -2.78299e-015 -2.0276e-014
rhumerus -60.8261 -29.6518 -41.0895
rradius 22.4151
rwrist 45.0584
rhand -16.1239 -26.5386
rfingers 7.12502
rthumb 10.0807 -56.2771
lclavicle -2.78299e-015 -2.0276e-014
lhumerus -65.821 13.9323 64.3041
lradius 16.9074
lwrist 10.0503
lhand -15.3072 5.42841
lfingers 7.12502
lthumb 10.8685 35.1272
rfemur -22.9673 -2.30166 19.2565
rtibia 36.6841
rfoot -18.5755 -0.423722
rtoes 10.5307
lfemur -20.3528 8.15887 -20.3065
ltibia 34.1323
lfoot -14.38 13.6271
ltoes 2.60968
379
root 0.326061 17.2846 -6.48009 5.31636 -5.18633 -0.789802
lowerback 2.70793 1.45356 -0.117076
upperback 4.0572 1.90748 1.25346
thorax 2.6021 0.92816 1.34471
lowerneck -11.1189 -0.0574767 -1.00522
upperneck 33.6205 0.319216 -0.471676
head 13.0907 -0.0465515 0.0384587
rclavicle -5.36719e-015 1.31198e-014
rhumerus -61.8622 -29.0901 -40.2507
rradius 22.2491
rwrist 45.5104
rhand -16.4216 -26.615
rfingers 7.12502
rthumb 9.79346 -56.3673
lclavicle -5.36719e-015 1.31198e-014
lhumerus -66.3655 13.2974 65.4705
lradius 17.3131
lwrist 11.6098
lhand -14.3052 5.82929
lfingers 7.12502
lthumb 11.8348 35.4749
rfemur -22.7712 -2.09405 19.2716
rtibia 36.043
rfoot -18.271 -0.509494
rtoes 10.8991
lfemur -20.1377 8.25117 -20.2909
ltibia 33.4421
lfoot -14.1832 13.4274
ltoes 2.74958
380
root 0.320239 17.3104 -6.48202 5.43893 -5.16764 -0.779556
lowerback 2.60954 1.48641 -0.21836
upperback 4.08047 1.95032 1.23494
thorax 2.67768 0.946587 1.38549
lowerneck -11.1898 -0.0753093 -1.08335
upperneck 33.7038 0.30915 -0.4492
head 13.142 -0.0580994 0.0595949
rclavicle 2.38542e-015 -7.95139e-015
rhumerus -62.8693 -28.5972 -39.3874
rradius 22.0547
rwrist 46.0313
rhand -16.5601 -26.7086
rfingers 7.12502
rthumb 9.65982 -56.4671
lclavicle 2.38542e-015 -7.95139e-015
lhumerus -66.7819 12.7758 66.4323
lradius 17.5521
lwrist 12.6399
lhand -13.528 6.07209
lfingers 7.12502
lthumb 12.5842 35.6731
rfemur -22.5844 -1.87328 19.2679
rtibia 35.4332
rfoot -17.9826 -0.655433
rtoes 11.2243
lfemur -19.9351 8.32744 -20.2915
ltibia 32.7712
lfoot -14.0001 13.2274
ltoes 2.81214
381
root 0.314757 17.3347 -6.4845 5.55917 -5.11494 -0.760674
lowerback 2.51611 1.50884 -0.307821
upperback 4.09512 1.97976 1.21581
thorax 2.74225 0.958678 1.41885
lowerneck -11.2675 -0.0868858 -1.15603
upperneck 33.8158 0.308807 -0.430698
head 13.2074 -0.065383 0.0796193
rclavicle -4.57205e-015 6.36111e-015
rhumerus -63.8569 -28.1749 -38.4902
rradius 21.8532
rwrist 46.5754
rhand -16.5264 -26.7889
rfingers 7.12502
rthumb 9.69233 -56.5459
lclavicle -4.57205e-015 6.36111e-015
lhumerus -67.061 12.3259 67.2504
lradius 17.6401
lwrist 13.1952
lhand -12.9777 6.22048
lfingers 7.12502
lthumb 13.1147 35.7881
rfemur -22.4065 -1.65177 19.2521
rtibia 34.8502
rfoot -17.7098 -0.840564
rtoes 11.5259
lfemur -19.75 8.38125 -20.3024
ltibia 32.126
lfoot -13.8256 13.0364
ltoes 2.8072
382
root 0.309893 17.3577 -6.48745 5.68128 -5.02845 -0.754405
lowerback 2.42546 1.52126 -0.360082
upperback 4.0998 1.99628 1.20102
thorax 2.79633 0.965365 1.43568
lowerneck -11.3453 -0.0924775 -1.20736
upperneck 33.946 0.31971 -0.434458
head 13.2809 -0.0680392 0.0887847
rclavicle -4.36332e-014 -1.47101e-014
rhumerus -64.824 -27.8178 -37.5628
rradius 21.6559
rwrist 47.0842
rhand -16.3466 -26.8307
rfingers 7.12502
rthumb 9.86576 -56.5795
lclavicle -4.36332e-014 -1.47101e-014
lhumerus -67.2066 11.9269 67.9484
lradius 17.5877
lwrist 13.295
lhand -12.6246 6.3012
lfingers 7.12502
lthumb 13.455 35.8466
rfemur -22.2352 -1.43438 19.2463
rtibia 34.2868
rfoot -17.4503 -1.04894
rtoes 11.8331
lfemur -19.5887 8.40473 -20.3017
ltibia 31.514
lfoot -13.6591 12.8613
ltoes 2.75592
